<svg width="158" height="32" viewBox="0 0 158 32" fill="none" xmlns="http://www.w3.org/2000/svg">
<path d="M0.326705 31V27.1669L15.5696 5.77912H0.296875V0.454545H23.6832V4.28764L8.42543 25.6754H23.7131V31H0.326705ZM35.1266 0.454545V31H28.6685V0.454545H35.1266ZM40.44 31V0.454545H52.4911C54.8079 0.454545 56.7816 0.897016 58.4123 1.78196C60.043 2.65696 61.2859 3.875 62.141 5.43608C63.006 6.98721 63.4386 8.77699 63.4386 10.8054C63.4386 12.8338 63.0011 14.6236 62.1261 16.1747C61.2511 17.7259 59.9833 18.9339 58.3228 19.799C56.6722 20.6641 54.6737 21.0966 52.3271 21.0966H44.646V15.9212H51.283C52.5259 15.9212 53.5501 15.7074 54.3555 15.2798C55.1708 14.8423 55.7773 14.2408 56.1751 13.4751C56.5827 12.6996 56.7866 11.8097 56.7866 10.8054C56.7866 9.79119 56.5827 8.90625 56.1751 8.15057C55.7773 7.38494 55.1708 6.79332 54.3555 6.37571C53.5401 5.94815 52.506 5.73438 51.2532 5.73438H46.8981V31H40.44ZM95.7029 15.7273C95.7029 19.0582 95.0716 21.892 93.8088 24.2287C92.5559 26.5653 90.8457 28.3501 88.6781 29.5831C86.5204 30.8061 84.0943 31.4176 81.3997 31.4176C78.6852 31.4176 76.2491 30.8011 74.0914 29.5682C71.9338 28.3352 70.2285 26.5504 68.9757 24.2138C67.7228 21.8771 67.0964 19.0483 67.0964 15.7273C67.0964 12.3963 67.7228 9.5625 68.9757 7.22585C70.2285 4.8892 71.9338 3.10937 74.0914 1.88636C76.2491 0.653408 78.6852 0.0369307 81.3997 0.0369307C84.0943 0.0369307 86.5204 0.653408 88.6781 1.88636C90.8457 3.10937 92.5559 4.8892 93.8088 7.22585C95.0716 9.5625 95.7029 12.3963 95.7029 15.7273ZM89.1554 15.7273C89.1554 13.5696 88.8322 11.75 88.1859 10.2685C87.5495 8.78693 86.6497 7.66335 85.4863 6.89773C84.323 6.1321 82.9608 5.74929 81.3997 5.74929C79.8386 5.74929 78.4764 6.1321 77.313 6.89773C76.1497 7.66335 75.2449 8.78693 74.5985 10.2685C73.9622 11.75 73.644 13.5696 73.644 15.7273C73.644 17.8849 73.9622 19.7045 74.5985 21.1861C75.2449 22.6676 76.1497 23.7912 77.313 24.5568C78.4764 25.3224 79.8386 25.7053 81.3997 25.7053C82.9608 25.7053 84.323 25.3224 85.4863 24.5568C86.6497 23.7912 87.5495 22.6676 88.1859 21.1861C88.8322 19.7045 89.1554 17.8849 89.1554 15.7273ZM126.036 0.454545V31H120.458L107.169 11.7749H106.945V31H100.487V0.454545H106.154L119.339 19.6648H119.608V0.454545H126.036ZM142.2 31H131.372V0.454545H142.289C145.362 0.454545 148.007 1.06605 150.224 2.28906C152.441 3.50213 154.146 5.24716 155.34 7.52415C156.543 9.80114 157.144 12.5256 157.144 15.6974C157.144 18.8793 156.543 21.6136 155.34 23.9006C154.146 26.1875 152.431 27.9425 150.194 29.1655C147.967 30.3885 145.302 31 142.2 31ZM137.83 25.4666H141.931C143.84 25.4666 145.446 25.1286 146.749 24.4524C148.061 23.7663 149.046 22.7074 149.702 21.2756C150.368 19.8338 150.701 17.9744 150.701 15.6974C150.701 13.4403 150.368 11.5959 149.702 10.1641C149.046 8.73224 148.066 7.67827 146.764 7.00213C145.461 6.32599 143.855 5.98793 141.946 5.98793H137.83V25.4666Z" fill="#E5E5E5"/>
</svg>
